<svg xmlns="http://www.w3.org/2000/svg" width="188" height="187"><g stroke="#000"><path d="M54.896 107.797c12.66 6.864 25.97 17.016 39.857 30.098 14.411-6.527 23.007-18.136 22.801-34.127 15.922-19.05 44.967-45.048 23.11-59.945l-19.982-14.016C104.328 18.893 80.832 51.79 79.229 73.52c-13.398 2.319-29.269 19.59-24.333 34.278z" fill="#5bcccc" stroke-width="3.1"/><path d="M75.186 75.637c-3.006-1.352 1.62-9.622 5.488-6.762 9.17 8.34 19.281 11.825 28.629 18.145 10.603 8.573 7.491 6.516 9.774 9.085 3.57 2.284 2.933 10.394-2.765 10.05-6.851-5.136-11.913-12.612-19.25-17.981-7.18-5.242-14.401-10.08-21.876-12.537z" fill="#fe0" stroke-width="2.5"/><path d="M54.896 107.797c-20.341 9.529-30.022 20.694-13.611 35.865 6.531 6.326-.084 14.96 3.58 17.426l16.434-23.087c1.354-11.952 9.207-7.605 10.394-3.763.619 4.428-2.111 7.792-7.657 7.507l-15.548 20.342c9.508 4.368 4.156-10.89 24.174.229 16.81 9.783 17.51-16.925 22.091-24.421-11.99-9.275-20.014-19.038-39.857-30.098z" fill="#ccc" stroke-width="3.1"/><path d="M146.669 38.07c14.358 11.096 19.285 17.493 5.889 36.6l-11.581 17.063c-3.391 6.605-3.941 14.422-11.873 15.157-5.118-.53-4.261-5.133 1.004-12.23 5.56-6.333 15.924-13.453 21.932-26.54 10.862-19.754-2.8-16.169-6.954-22.935z" fill="#e30000" stroke-width="2.5"/><path d="M127.356 27.32c-2.305-7.852-.008-11.058 4.481-10.88 5.79-.249 13.413 4.381 18.052 9.003 5.763 7.782-1.431 11.358-6.201 12.47z" fill="#fe0" stroke-width="2.5"/><path d="M120.682 29.807c-6.97-4.853-2.496-7.831 3.332-5.257 9.136 3.77 14.577 9.12 22.655 13.52 3.86 2.031 2.985 6.42-3.372 7.519z" fill="#e30000" stroke-width="2.5"/></g></svg>